<?xml version="1.0" standalone="no"?>
<!DOCTYPE svg PUBLIC "-//W3C//DTD SVG 20010904//EN"
 "http://www.w3.org/TR/2001/REC-SVG-20010904/DTD/svg10.dtd">
<svg version="1.0" xmlns="http://www.w3.org/2000/svg"
 width="500.000000pt" height="500.000000pt" viewBox="0 0 500.000000 500.000000"
 preserveAspectRatio="xMidYMid meet">
<metadata>
Created by potrace 1.11, written by Peter Selinger 2001-2013
</metadata>
<g transform="translate(0.000000,500.000000) scale(0.100000,-0.100000)"
fill="#000000" stroke="none">
<path d="M2401 2739 c-25 -5 -51 -15 -59 -23 -12 -12 -3 -13 71 -9 75 5 89 3
125 -17 45 -25 62 -54 62 -105 0 -52 -36 -87 -98 -95 -61 -8 -62 -4 -37 90 21
78 20 82 -17 78 -28 -3 -35 -9 -45 -39 -23 -71 -65 -279 -59 -294 3 -8 17 -15
30 -15 22 0 28 8 44 63 26 82 51 89 77 20 24 -65 52 -103 76 -103 24 0 24 0
-5 83 -17 48 -21 69 -13 72 7 2 29 9 49 15 96 30 115 151 35 228 -60 58 -127
72 -236 51z"/>
<path d="M1671 2719 c-13 -5 -46 -25 -72 -45 -78 -57 -111 -173 -69 -242 36
-59 107 -86 165 -62 15 6 27 1 52 -22 43 -42 59 -32 27 16 l-26 38 22 40 c12
22 26 52 30 66 l8 27 1 -25 c3 -73 34 -96 82 -61 l28 21 15 -29 c13 -24 34
-41 52 -41 2 0 4 12 3 28 -1 15 1 55 5 88 8 67 1 80 -37 70 -13 -4 -30 -23
-42 -49 -27 -57 -50 -56 -50 3 0 38 -3 45 -20 45 -12 0 -22 -9 -26 -25 -6 -22
-7 -21 -8 10 -1 19 -10 53 -20 75 -30 65 -74 92 -120 74z m79 -114 c0 -46 -39
-142 -47 -117 -6 15 -35 16 -51 0 -9 -9 -8 -16 5 -30 15 -17 15 -20 3 -28 -26
-16 -39 -11 -56 21 -28 55 2 170 49 189 12 5 39 9 60 9 l37 1 0 -45z"/>
<path d="M2740 2675 c-11 -13 -11 -19 3 -32 21 -21 49 -9 45 19 -4 28 -30 35
-48 13z"/>
<path d="M2067 2619 c-40 -24 -60 -113 -37 -173 5 -14 21 -33 35 -42 22 -14
32 -15 63 -5 20 6 48 20 62 32 l25 21 -57 -6 c-50 -5 -59 -4 -68 13 -21 41 -6
144 23 149 27 5 30 -23 8 -67 -25 -48 -25 -51 -5 -51 22 0 74 54 74 77 0 47
-77 79 -123 52z"/>
<path d="M2707 2599 c8 -8 10 -33 6 -74 -4 -46 -1 -69 11 -93 9 -18 18 -32 20
-32 3 0 14 41 26 92 21 88 21 93 4 105 -23 17 -83 18 -67 2z"/>
<path d="M2925 2596 c-38 -17 -90 -72 -105 -110 -8 -22 -8 -37 1 -58 22 -54
81 -44 147 23 18 18 32 36 32 41 0 16 -27 7 -50 -17 -13 -14 -32 -25 -42 -25
-41 0 -8 74 51 113 23 15 41 32 41 37 0 14 -39 12 -75 -4z"/>
<path d="M3308 2593 c-27 -30 -22 -49 19 -73 l37 -22 -49 -43 c-46 -40 -49
-45 -34 -60 21 -21 56 -12 103 26 44 37 46 66 6 104 -34 33 -31 45 13 45 32 0
66 15 56 24 -2 3 -34 8 -69 12 -57 5 -67 4 -82 -13z"/>
<path d="M3113 2570 c-29 -17 -57 -39 -63 -49 -14 -26 -13 -74 2 -89 18 -18
69 -14 103 7 l30 18 21 -25 21 -26 12 22 c6 12 14 42 17 67 9 59 -10 60 -70 5
-43 -40 -76 -52 -76 -27 0 27 35 60 88 84 42 18 52 27 41 34 -27 17 -74 9
-126 -21z"/>
</g>
</svg>
